<svg width="512" height="512" viewBox="0 0 512 512" fill="none" xmlns="http://www.w3.org/2000/svg">
	<rect width="512" height="512"/>
	<path
		d="M232.5 0.900023C231.4 1.40002 229.6 2.80002 228.5 4.00002C226.6 6.10002 226.5 7.80002 226.2 43.1L225.9 80H200.9C174.1 80 171.5 80.4 168.8 85.3C168 86.7 167.4 93.2 167.2 103.7L166.8 119.9L149.4 120.2L132 120.5L129.3 123.3L126.5 126L126.2 142.9L125.9 159.8L114 160.2C102.5 160.5 101.9 160.6 99.3 163.3L96.5 166L96.2 210.8L95.9 255.5L72.2 269.8C59.2 277.7 47.8 284.6 46.9 285.3C44.9 286.9 43 290.4 43 292.7C43 294 83.9 433.2 94.6 468.3C95.1 469.9 94.9 470 93.3 469.1C92.2 468.6 86.9 467.3 81.4 466.4C57.6 462.4 37.8 467.9 15.2 485C4.90001 492.8 1.30001 496.5 0.500007 500.1C-0.499993 504.4 1.60001 508.6 5.50001 510.4C11.4 513.2 11.4 513.3 26.4 501.9C45.6 487.4 63.1 482.3 79.2 486.5C82.3 487.3 89.3 489.9 94.7 492.4C111 499.7 119.8 502 133.5 502.7C148.8 503.4 157 501.5 174.7 492.9C208.3 476.8 218.1 476.4 247.3 490.1C274.4 502.8 286.6 505.8 303.4 504C314.2 502.7 321.8 500.1 337.9 492.1C353.4 484.3 361.1 481.5 369.2 480.5C379.3 479.2 393.5 482.7 410.1 490.3C436.3 502.4 461.4 501.8 483.5 488.6C489.4 485.1 503.2 474.5 507.7 470.1C513.5 464.3 512.9 456.6 506.5 453.6C500.4 450.7 500.3 450.7 484.9 463.2C475.3 471 467.6 475.4 459.5 477.5C452.8 479.2 442.6 479.4 436 478C429.1 476.4 417 471.7 417 470.5C417 469.9 428.7 430.1 443 382C457.3 333.9 469 293.7 469 292.7C469 290.4 467.1 286.9 465.1 285.3C464.2 284.6 452.8 277.7 439.8 269.8L416.1 255.5L415.8 210.8L415.5 166L412.7 163.3C410.1 160.6 409.5 160.5 398 160.2L386.1 159.8L385.8 142.9L385.5 126L382.7 123.3L380 120.5L362.6 120.2L345.2 119.9L344.8 103.7C344.6 93.2 344 86.7 343.2 85.3C340.5 80.4 337.9 80 311.1 80H286.1L285.8 43L285.5 6.00002L282.7 3.30002L280 0.500023L257.2 0.300023C244.7 0.200023 233.6 0.500023 232.5 0.900023ZM266 50V80H256H246V50V20H256H266V50ZM324 110V120H256H188V110V100H256H324V110ZM366 150V160H256H146V150V140H256H366V150ZM218.5 180.9C217.8 181.5 139.9 228.8 116.8 242.7C116.3 242.9 116 228.9 116 211.6V180H167.7C197.6 180 219 180.4 218.5 180.9ZM396 211.6C396 228.9 395.7 242.9 395.3 242.7C372.1 228.8 294.2 181.5 293.6 180.9C293 180.4 314.4 180 344.3 180H396V211.6ZM246 327.4V466.8L241.2 465C225.6 459.1 205.6 458.5 190.2 463.6C187.6 464.5 178.3 468.7 169.5 473.1C149.8 482.8 141.4 484.9 128.8 483.3C124.4 482.7 120.4 481.8 120 481.4C119 480.3 64.7 298 65.2 297.4C65.7 297 245.4 188 245.8 188C245.9 188 246 250.7 246 327.4ZM359.5 244.4C407.3 273.4 446.6 297.2 446.8 297.4C447 297.6 436.1 334.9 422.6 380.2C405 439.5 397.8 462.4 396.8 462.1C392 460.8 379.1 459.9 371.5 460.3C360.1 460.8 349.5 464.3 329.7 474C312.5 482.4 307.3 484 296.5 484C287.3 483.9 282.3 483 272.8 479.4L266 476.8V332.3V187.8L269.3 189.8C271 190.9 311.6 215.5 359.5 244.4Z"
		fill="white"/>
	<path
		d="M215.5 233.4C208.9 236.3 208.3 245.3 214.4 250.2C219 254 227.9 250.6 229.4 244.5C230.3 240.9 227.7 235.4 224.1 233.6C220.5 231.7 219.4 231.7 215.5 233.4Z"
		fill="white"/>
	<path
		d="M175.5 258.3C142.6 278.6 116.1 295.6 114.3 297.7C111.8 300.3 111.2 305.7 113 309.1C114.6 311.9 119.8 314.3 123.2 313.6C124.7 313.3 141.1 303.5 159.6 291.9C186.9 274.7 193.5 270.1 194.7 267.5C196.6 263.5 195.8 259.8 192.5 256.4C188.7 252.6 183.8 253.1 175.5 258.3Z"
		fill="white"/>
	<path
		d="M292.8 234.7C287.1 238.3 286.5 244.7 291.4 249.6C295.8 254 299.7 254.1 304.2 250.1C306.9 247.7 307.5 246.5 307.5 243C307.5 239.5 306.9 238.3 304.2 235.9C300.5 232.6 296.8 232.2 292.8 234.7Z"
		fill="white"/>
	<path
		d="M327.1 255.4C321.3 258.6 320.5 265.4 325.3 270.4C328.7 274 388.7 311.3 393.9 313.1C403.2 316.4 410.2 304.4 403.3 297.1C401.1 294.8 345 259.7 336.3 255.1C333.5 253.7 330.1 253.7 327.1 255.4Z"
		fill="white"/>
</svg>
